<?xml version="1.0" encoding="UTF-8" standalone="no"?>
<svg
   xmlns:dc="http://purl.org/dc/elements/1.1/"
   xmlns:cc="http://creativecommons.org/ns#"
   xmlns:rdf="http://www.w3.org/1999/02/22-rdf-syntax-ns#"
   xmlns:svg="http://www.w3.org/2000/svg"
   xmlns="http://www.w3.org/2000/svg"
   id="svg8"
   version="1.1"
   viewBox="0 0 475.12799 240"
   height="240"
   width="475.12799">
  <title
     id="title888">cs-dl Logo</title>
  <defs
     id="defs2" />
  <metadata
     id="metadata5">
    <rdf:RDF>
      <cc:Work
         rdf:about="">
        <dc:format>image/svg+xml</dc:format>
        <dc:type
           rdf:resource="http://purl.org/dc/dcmitype/StillImage" />
        <dc:title>cs-dl Logo</dc:title>
        <dc:date>2023-03-23</dc:date>
        <dc:creator>
          <cc:Agent>
            <dc:title>anemisus</dc:title>
          </cc:Agent>
        </dc:creator>
        <cc:license
           rdf:resource="http://creativecommons.org/publicdomain/zero/1.0/" />
      </cc:Work>
      <cc:License
         rdf:about="http://creativecommons.org/publicdomain/zero/1.0/">
        <cc:permits
           rdf:resource="http://creativecommons.org/ns#Reproduction" />
        <cc:permits
           rdf:resource="http://creativecommons.org/ns#Distribution" />
        <cc:permits
           rdf:resource="http://creativecommons.org/ns#DerivativeWorks" />
      </cc:License>
    </rdf:RDF>
  </metadata>
  <g
     transform="translate(0,-233.49997)"
     id="layer1">
    <g
       transform="matrix(22.849423,0,0,22.84943,3587.4213,-964.45972)"
       id="g886">
      <path
         style="opacity:1;fill:#404349;fill-opacity:1;stroke:none;stroke-width:0.40853953;stroke-linecap:round;stroke-linejoin:round;stroke-miterlimit:4;stroke-dasharray:none;stroke-dashoffset:0;stroke-opacity:1;paint-order:normal"
         d="m -147.13025,53.944122 h 9.37592 v 7.472153 h -9.37592 z"
         id="rect856" />
      <path
         style="opacity:1;fill:#24a5da;fill-opacity:1;stroke:none;stroke-width:4.79229498;stroke-linecap:round;stroke-linejoin:round;stroke-miterlimit:4;stroke-dasharray:none;stroke-dashoffset:0;stroke-opacity:1;paint-order:normal"
         d="m -585.79297,201.46289 c -2.3784,0 -4.29492,1.91457 -4.29492,4.29297 v 24.49609 c 0,2.37841 1.91652,4.29297 4.29492,4.29297 h 63.38672 c 2.3784,0 4.29297,-1.91456 4.29297,-4.29297 v -24.49609 c 0,-2.3784 -1.91457,-4.29297 -4.29297,-4.29297 z m 35.51367,4.30859 h 23.92774 c 2.17643,0 3.92968,1.75326 3.92968,3.92969 v 16.60547 c 0,2.17643 -1.75325,3.92969 -3.92968,3.92969 h -23.92774 c -2.17643,0 -3.92968,-1.75326 -3.92968,-3.92969 v -16.60547 c 0,-2.17643 1.75325,-3.92969 3.92968,-3.92969 z"
         transform="scale(0.26458333)"
         id="rect826" />
      <path
         style="font-style:normal;font-variant:normal;font-weight:500;font-stretch:normal;font-size:18.66666603px;line-height:1.25;font-family:'Quicksand Medium';-inkscape-font-specification:'Quicksand Medium, Medium';letter-spacing:0px;word-spacing:0px;fill:#ffffff;fill-opacity:1;stroke:none;stroke-width:0.99999994"
         d="m -566.07422,211.2832 c -0.85866,0 -1.63,0.15056 -2.31445,0.44922 -0.68445,0.29867 -1.21971,0.72711 -1.60547,1.28711 -0.38579,0.54756 -0.57813,1.18961 -0.57813,1.92383 0,1.05778 0.34095,1.88509 1.02539,2.48242 0.6969,0.59734 1.68699,1.02578 2.96876,1.28711 1.08268,0.23644 1.88554,0.53559 2.4082,0.89649 0.53495,0.34843 0.80771,0.84702 0.82031,1.49414 0,0.54755 -0.27276,1.00043 -0.82031,1.36132 -0.53511,0.36089 -1.19452,0.54102 -1.97852,0.54102 -0.672,0 -1.27544,-0.10485 -1.81054,-0.31641 -0.52269,-0.224 -1.03349,-0.56689 -1.53125,-1.02734 -0.14925,-0.1369 -0.32937,-0.20508 -0.54102,-0.20508 -0.23655,0 -0.44308,0.0946 -0.61719,0.28125 -0.17436,0.17422 -0.26172,0.3717 -0.26172,0.5957 0,0.28622 0.13124,0.54163 0.39258,0.76563 0.63466,0.57245 1.30115,0.99062 1.99805,1.25195 0.69689,0.2489 1.49975,0.37305 2.4082,0.37305 0.83377,0 1.59803,-0.15569 2.29492,-0.4668 0.6969,-0.31111 1.24437,-0.74664 1.64258,-1.30664 0.41066,-0.56 0.61719,-1.20205 0.61719,-1.92383 0,-0.82133 -0.16791,-1.48587 -0.50391,-1.99609 -0.336,-0.51022 -0.81529,-0.90909 -1.4375,-1.19531 -0.60979,-0.28622 -1.40043,-0.53454 -2.37109,-0.7461 -0.97066,-0.224 -1.70534,-0.4987 -2.20313,-0.82226 -0.48531,-0.32355 -0.72656,-0.79061 -0.72656,-1.40039 0,-0.56 0.24125,-1.00775 0.72656,-1.34375 0.49779,-0.34844 1.16429,-0.52149 1.99805,-0.52149 0.52268,0 1.07013,0.11194 1.64258,0.33594 0.57242,0.224 1.02017,0.49676 1.34375,0.82031 0.1121,0.0996 0.25558,0.15039 0.42969,0.15039 0.23644,0 0.43589,-0.0875 0.59765,-0.26171 0.17411,-0.17422 0.25977,-0.37366 0.25977,-0.59766 0,-0.28622 -0.1415,-0.55384 -0.42774,-0.80274 -0.4231,-0.41065 -0.97766,-0.73938 -1.6621,-0.98828 -0.68445,-0.24889 -1.41205,-0.375 -2.1836,-0.375 z m -10,0.0566 c -1.25689,0 -2.39557,0.29206 -3.41601,0.87696 -1.008,0.57244 -1.80378,1.37017 -2.38868,2.39062 -0.57242,1.008 -0.85937,2.1396 -0.85937,3.39649 0,1.36889 0.29917,2.56354 0.89648,3.58398 0.60979,1.02045 1.41778,1.79887 2.42578,2.33399 1.02045,0.5351 2.1347,0.80273 3.3418,0.80273 0.5849,0 1.17612,-0.0804 1.77344,-0.24219 0.60979,-0.16178 1.15724,-0.38052 1.64258,-0.6543 0.13707,-0.0747 0.24377,-0.17438 0.31836,-0.29882 0.0872,-0.13689 0.1289,-0.28035 0.1289,-0.42969 0,-0.21156 -0.0732,-0.411 -0.22265,-0.59766 -0.16177,-0.21155 -0.38051,-0.3164 -0.6543,-0.3164 -0.17414,0 -0.33496,0.0367 -0.48438,0.11133 -0.74665,0.44799 -1.58105,0.67187 -2.50195,0.67187 -0.896,0 -1.70399,-0.19234 -2.42578,-0.57813 -0.72176,-0.39821 -1.28854,-0.97013 -1.69922,-1.71679 -0.41066,-0.74667 -0.61523,-1.63703 -0.61523,-2.66992 0,-0.95822 0.19746,-1.80485 0.5957,-2.53907 0.39821,-0.74666 0.95277,-1.32566 1.66211,-1.73632 0.72176,-0.41067 1.54908,-0.61524 2.48242,-0.61524 0.896,0 1.7304,0.21875 2.50195,0.6543 0.16189,0.0871 0.3298,0.1289 0.50391,0.1289 0.26124,0 0.46582,-0.0978 0.61524,-0.29687 0.14941,-0.18667 0.2246,-0.39319 0.2246,-0.61719 0,-0.33599 -0.1486,-0.5843 -0.44726,-0.74609 h -0.002 c -1.05779,-0.59734 -2.18938,-0.89649 -3.39649,-0.89649 z"
         id="path858"
         transform="scale(0.26458333)" />
      <path
         style="font-style:normal;font-variant:normal;font-weight:normal;font-stretch:normal;font-size:18.66666603px;line-height:1.25;font-family:'Quicksand Medium';-inkscape-font-specification:'Quicksand Medium, ';letter-spacing:0px;word-spacing:0px;fill:#ffffff;fill-opacity:1;stroke:none;stroke-width:0.99999994"
         d="m -533.25,211.00391 c -0.26134,0 -0.473,0.0875 -0.63477,0.26171 -0.16176,0.16179 -0.24218,0.37344 -0.24218,0.63477 v 4.38672 c -0.34845,-0.43556 -0.80328,-0.79068 -1.36328,-1.06445 -0.56,-0.27378 -1.16858,-0.41016 -1.82813,-0.41016 -0.82134,0 -1.57532,0.21679 -2.25976,0.65234 -0.68445,0.43556 -1.22484,1.04608 -1.62305,1.83008 -0.38579,0.77155 -0.58008,1.64261 -0.58008,2.61328 0,0.97067 0.19942,1.84686 0.59766,2.63086 0.39821,0.77156 0.94055,1.37694 1.625,1.8125 0.68444,0.43556 1.44871,0.65235 2.29492,0.65235 0.6471,0 1.25054,-0.15569 1.81055,-0.4668 0.57244,-0.31111 1.01504,-0.69067 1.32617,-1.13867 v 0.52344 c 0,0.26132 0.0804,0.4781 0.24218,0.65234 0.16179,0.16176 0.37345,0.24219 0.63477,0.24219 0.26137,0 0.473,-0.0856 0.63477,-0.25977 0.17411,-0.17422 0.26171,-0.38587 0.26171,-0.63476 v -12.02149 c 0,-0.26132 -0.0876,-0.47298 -0.26171,-0.63477 -0.16179,-0.17421 -0.37343,-0.26171 -0.63477,-0.26171 z m 4.56055,0 c -0.249,0 -0.46066,0.0875 -0.63477,0.26171 -0.17436,0.17422 -0.26172,0.38588 -0.26172,0.63477 v 12.02149 c 0,0.2489 0.0804,0.46055 0.24219,0.63476 0.17416,0.17421 0.38582,0.25977 0.63477,0.25977 0.24899,0 0.46065,-0.0856 0.63476,-0.25977 0.17436,-0.17422 0.26172,-0.38587 0.26172,-0.63476 v -12.02149 c 0,-0.24888 -0.0874,-0.46053 -0.26172,-0.63477 -0.16171,-0.17421 -0.36629,-0.26171 -0.61523,-0.26171 z m -8.36914,5.45117 c 0.58489,0 1.10278,0.1486 1.55078,0.44726 0.46037,0.29867 0.81355,0.71685 1.0625,1.25196 0.26134,0.52266 0.39258,1.10679 0.39258,1.7539 0,0.65956 -0.13124,1.25077 -0.39258,1.77344 -0.24887,0.52267 -0.60206,0.93375 -1.0625,1.23242 -0.448,0.29867 -0.96589,0.44727 -1.55078,0.44727 -0.5849,0 -1.10596,-0.1486 -1.56641,-0.44727 -0.448,-0.29867 -0.80314,-0.70975 -1.06445,-1.23242 -0.24895,-0.52267 -0.37305,-1.11388 -0.37305,-1.77344 0,-0.64711 0.1241,-1.23124 0.37305,-1.7539 0.26131,-0.53511 0.61645,-0.95329 1.06445,-1.25196 0.46045,-0.29866 0.98151,-0.44726 1.56641,-0.44726 z m -10.92969,2.12695 c -0.24874,0 -0.4604,0.0824 -0.63477,0.24414 -0.17411,0.16177 -0.25976,0.36634 -0.25976,0.61524 0,0.26132 0.0856,0.4781 0.25976,0.65234 0.17416,0.16176 0.38582,0.24414 0.63477,0.24414 h 3.58398 c 0.2489,0 0.45543,-0.0824 0.61719,-0.24414 0.17411,-0.16177 0.25977,-0.36634 0.25977,-0.61523 0,-0.26133 -0.0857,-0.47298 -0.25977,-0.63477 -0.16171,-0.17421 -0.36824,-0.26172 -0.61719,-0.26172 z"
         transform="scale(0.26458333)"
         id="path865" />
    </g>
  </g>
</svg>
