<?xml version="1.0" encoding="UTF-8" standalone="no"?>
<svg
   xmlns:dc="http://purl.org/dc/elements/1.1/"
   xmlns:cc="http://creativecommons.org/ns#"
   xmlns:rdf="http://www.w3.org/1999/02/22-rdf-syntax-ns#"
   xmlns:svg="http://www.w3.org/2000/svg"
   xmlns="http://www.w3.org/2000/svg"
   width="435"
   height="200"
   viewBox="0 0 435 200"
   version="1.1"
   id="svg8">
  <title
     id="title888">cs-dl Logo</title>
  <defs
     id="defs2" />
  <metadata
     id="metadata5">
    <rdf:RDF>
      <cc:Work
         rdf:about="">
        <dc:format>image/svg+xml</dc:format>
        <dc:type
           rdf:resource="http://purl.org/dc/dcmitype/StillImage" />
        <dc:title>cs-dl Logo</dc:title>
        <dc:date>2023-03-24</dc:date>
        <dc:creator>
          <cc:Agent>
            <dc:title>Anemisus</dc:title>
          </cc:Agent>
        </dc:creator>
        <cc:license
           rdf:resource="http://creativecommons.org/publicdomain/zero/1.0/" />
      </cc:Work>
      <cc:License
         rdf:about="http://creativecommons.org/publicdomain/zero/1.0/">
        <cc:permits
           rdf:resource="http://creativecommons.org/ns#Reproduction" />
        <cc:permits
           rdf:resource="http://creativecommons.org/ns#Distribution" />
        <cc:permits
           rdf:resource="http://creativecommons.org/ns#DerivativeWorks" />
      </cc:License>
    </rdf:RDF>
  </metadata>
  <g
     id="g837">
    <path
       style="opacity:1;fill:#404349;fill-opacity:1;stroke:none;stroke-width:9.33489418;stroke-linecap:round;stroke-linejoin:round;stroke-miterlimit:4;stroke-dasharray:none;stroke-dashoffset:0;stroke-opacity:1;paint-order:normal"
       d="M 205.58008,14.63274 H 419.81444 V 185.36718 H 205.58008 Z"
       id="rect856" />
    <path
       style="opacity:1;fill:#24a5da;fill-opacity:1;stroke:none;stroke-width:28.97219086;stroke-linecap:round;stroke-linejoin:round;stroke-miterlimit:4;stroke-dasharray:none;stroke-dashoffset:0;stroke-opacity:1;paint-order:normal"
       d="M 25.965245,-2.3960713e-5 C 11.586446,-2.3960713e-5 -2.1709796e-5,11.574659 -2.1709796e-5,25.953462 V 174.04649 c 0,14.37887 11.586467709796,25.95349 25.965266709796,25.95349 H 409.047 c 14.3788,0 25.953,-11.57462 25.953,-25.95349 V 25.953462 C 435,11.574659 423.4258,-2.3960713e-5 409.047,-2.3960713e-5 Z M 240.66585,26.047894 H 385.195 c 13.15777,0 23.757,10.599471 23.757,23.757249 V 150.19481 c 0,13.15778 -10.59923,23.75725 -23.757,23.75725 H 240.66585 c -13.15777,0 -23.75718,-10.59947 -23.75718,-23.75725 V 49.805143 c 0,-13.157778 10.59941,-23.757249 23.75718,-23.757249 z"
       id="rect826" />
    <path
       style="font-style:normal;font-variant:normal;font-weight:500;font-stretch:normal;font-size:18.66666603px;line-height:1.25;font-family:'Quicksand Medium';-inkscape-font-specification:'Quicksand Medium, Medium';letter-spacing:0px;word-spacing:0px;fill:#ffffff;fill-opacity:1;stroke:none;stroke-width:6.04557705"
       d="m 145.17645,59.369429 c -5.19109,0 -9.85428,0.910222 -13.99218,2.715795 -4.13789,1.805633 -7.37385,4.3958 -9.70599,7.781324 -2.33232,3.310317 -3.49513,7.19188 -3.49513,11.630665 0,6.394892 2.06124,11.396459 6.19907,15.007664 4.21317,3.611263 10.19883,6.201433 17.94787,7.781323 6.54542,1.42942 11.39918,3.23795 14.55896,5.4198 3.23408,2.10646 4.88307,5.12073 4.95924,9.03294 0,3.31026 -1.64899,6.04818 -4.95924,8.22997 -3.23505,2.18179 -7.22157,3.27078 -11.9613,3.27078 -4.06263,0 -7.71077,-0.63388 -10.94576,-1.91288 -3.15996,-1.35421 -6.24804,-3.42718 -9.25728,-6.21087 -0.90231,-0.82764 -1.99124,-1.23983 -3.27078,-1.23983 -1.43008,0 -2.67868,0.57192 -3.73127,1.70032 -1.05411,1.05326 -1.58225,2.24715 -1.58225,3.60135 0,1.73037 0.79342,3.27447 2.37337,4.62868 3.83689,3.46079 7.8662,5.98887 12.07937,7.56876 4.2131,1.50475 9.06685,2.25531 14.55895,2.25531 5.04062,0 9.66102,-0.94124 13.87412,-2.82208 4.21316,-1.88084 7.52293,-4.51387 9.93034,-7.89939 2.48268,-3.38553 3.73127,-7.26709 3.73127,-11.63067 0,-4.96541 -1.01511,-8.98294 -3.04643,-12.06752 -2.03131,-3.08457 -4.92889,-5.49597 -8.69051,-7.226338 -3.68653,-1.730366 -8.46641,-3.231604 -14.33461,-4.510606 -5.8682,-1.35421 -10.30976,-3.01493 -13.31919,-4.971037 -2.93398,-1.956047 -4.39247,-4.779695 -4.39247,-8.466168 0,-3.385524 1.45849,-6.092431 4.39247,-8.123746 3.00943,-2.106521 7.03881,-3.152708 12.07936,-3.152708 3.15991,0 6.46956,0.676742 9.93035,2.030951 3.46061,1.35421 6.16751,3.003202 8.12374,4.959249 0.67771,0.602139 1.54513,0.909194 2.59772,0.909194 1.42942,0 2.63521,-0.528988 3.61314,-1.582188 1.0526,-1.053261 1.57046,-2.258991 1.57046,-3.6132 0,-1.730366 -0.85545,-3.348284 -2.58593,-4.853028 -2.55789,-2.482617 -5.91052,-4.46998 -10.04835,-5.974724 -4.1379,-1.504684 -8.53666,-2.267092 -13.20113,-2.267092 z m -60.455759,0.34218 c -7.598625,0 -14.482602,1.765671 -20.65175,5.30173 -6.093941,3.460731 -10.904889,8.28347 -14.440947,14.452681 -3.460609,6.093942 -5.195387,12.935119 -5.195387,20.533746 0,8.275734 1.808655,15.498084 5.419738,21.667234 3.686532,6.16921 8.571298,10.87521 14.665239,14.11032 6.169208,3.23499 12.905492,4.85296 20.203107,4.85296 3.536058,0 7.110323,-0.48606 10.721467,-1.46417 3.686532,-0.97806 6.996182,-2.30047 9.930342,-3.95563 0.82867,-0.4516 1.47373,-1.05422 1.92467,-1.80654 0.52717,-0.82758 0.77928,-1.69487 0.77928,-2.59772 0,-1.279 -0.44254,-2.48473 -1.34605,-3.6132 -0.978,-1.27894 -2.3004,-1.91282 -3.95562,-1.91282 -1.05278,0 -2.02503,0.22187 -2.928359,0.67305 -4.51393,2.70836 -9.558359,4.06184 -15.12573,4.06184 -5.416837,0 -10.301602,-1.1628 -14.665238,-3.49513 -4.363456,-2.40741 -7.789967,-5.86499 -10.272765,-10.37898 -2.482676,-4.51406 -3.71942,-9.8968 -3.71942,-16.141214 0,-5.792994 1.19376,-10.911362 3.60135,-15.350147 2.407409,-4.513991 5.760044,-8.014381 10.048413,-10.497058 4.363455,-2.482738 9.365082,-3.719482 15.00766,-3.719482 5.416836,0 10.461265,1.32247 15.12573,3.955622 0.978719,0.52657 1.993829,0.779275 3.046429,0.779275 1.57934,0 2.81615,-0.591257 3.71948,-1.794751 0.90327,-1.128528 1.35783,-2.377061 1.35783,-3.73127 0,-2.031254 -0.89837,-3.532432 -2.70394,-4.510546 h -0.0121 c -6.394952,-3.611265 -13.236066,-5.4198 -20.533741,-5.4198 z"
       id="path858" />
    <path
       style="font-style:normal;font-variant:normal;font-weight:normal;font-stretch:normal;font-size:18.66666603px;line-height:1.25;font-family:'Quicksand Medium';-inkscape-font-specification:'Quicksand Medium, ';letter-spacing:0px;word-spacing:0px;fill:#ffffff;fill-opacity:1;stroke:none;stroke-width:6.04557705"
       d="m 343.7467,57.68096 c -1.57995,0 -2.85955,0.528988 -3.83755,1.582188 -0.97793,0.978114 -1.46411,2.257661 -1.46411,3.837552 v 26.520259 c -2.10658,-2.633212 -4.85629,-4.780118 -8.24182,-6.435216 -3.38552,-1.655158 -7.06474,-2.479654 -11.0521,-2.479654 -4.96547,0 -9.52371,1.31062 -13.66155,3.943772 -4.13789,2.633212 -7.40486,6.324159 -9.81227,11.063892 -2.33232,4.664467 -3.50692,9.930527 -3.50692,15.798787 0,5.86826 1.20561,11.16534 3.6132,15.90507 2.40741,4.66453 5.68617,8.3244 9.82406,10.95761 4.13784,2.63321 8.75829,3.94384 13.87412,3.94384 3.91209,0 7.56023,-0.94124 10.94581,-2.82208 3.46073,-1.88084 6.13651,-4.1755 8.01747,-6.88392 v 3.1645 c 0,1.57983 0.48606,2.89039 1.46411,3.94377 0.97812,0.97793 2.25772,1.46418 3.83755,1.46418 1.58014,0 2.85956,-0.5175 3.83756,-1.57046 1.05259,-1.05326 1.58218,-2.33281 1.58218,-3.83749 V 63.1007 c 0,-1.579831 -0.52959,-2.859438 -1.58218,-3.837552 -0.97812,-1.0532 -2.2576,-1.582188 -3.83756,-1.582188 z m 27.57116,0 c -1.50535,0 -2.78496,0.528988 -3.83755,1.582188 -1.05411,1.05326 -1.58225,2.332868 -1.58225,3.837552 v 72.67686 c 0,1.50474 0.48606,2.78429 1.46418,3.83749 1.0529,1.0532 2.3325,1.57046 3.83755,1.57046 1.50529,0 2.78489,-0.5175 3.83749,-1.57046 1.0541,-1.05326 1.58225,-2.33281 1.58225,-3.83749 V 63.1007 c 0,-1.504624 -0.52839,-2.784171 -1.58225,-3.837552 -0.97763,-1.0532 -2.21444,-1.582188 -3.71942,-1.582188 z m -50.59628,32.955475 c 3.536,0 6.66694,0.898373 9.37536,2.703945 2.7832,1.805633 4.91838,4.333773 6.42343,7.56882 1.57995,3.15978 2.37337,6.69119 2.37337,10.60334 0,3.98742 -0.79342,7.56163 -2.37337,10.72147 -1.50457,3.15984 -3.6398,5.64506 -6.42343,7.45069 -2.70842,1.80564 -5.83936,2.70401 -9.37536,2.70401 -3.53605,0 -6.68616,-0.89837 -9.46985,-2.70401 -2.70842,-1.80563 -4.85544,-4.29085 -6.43521,-7.45069 -1.50505,-3.15984 -2.2553,-6.73405 -2.2553,-10.72147 0,-3.91215 0.75025,-7.44356 2.2553,-10.60334 1.57977,-3.235047 3.72679,-5.763187 6.43521,-7.56882 2.78369,-1.805572 5.9338,-2.703945 9.46985,-2.703945 z m -66.07627,12.858645 c -1.50378,0 -2.78339,0.49815 -3.83755,1.47596 -1.0526,0.978 -1.5704,2.21474 -1.5704,3.71949 0,1.57983 0.5175,2.89039 1.5704,3.94377 1.05289,0.97793 2.3325,1.47597 3.83755,1.47597 h 21.66722 c 1.50475,0 2.75334,-0.49816 3.73127,-1.47597 1.0526,-0.97799 1.57046,-2.21474 1.57046,-3.71942 0,-1.57989 -0.51811,-2.85944 -1.57046,-3.83755 -0.97763,-1.0532 -2.22622,-1.58225 -3.73127,-1.58225 z"
       id="path865" />
  </g>
</svg>
